<svg xmlns="http://www.w3.org/2000/svg" version="1.1" xmlns:xlink="http://www.w3.org/1999/xlink" width="512" height="512" x="0" y="0" viewBox="0 0 512 512" style="enable-background:new 0 0 512 512" xml:space="preserve" class=""><g><path d="M456.348 83.478c-9.228 0-16.696 7.467-16.696 16.696 0 31.533-78.554 66.783-183.652 66.783s-183.652-35.25-183.652-66.783c0-9.228-7.467-16.696-16.696-16.696s-16.696 7.467-16.696 16.696v311.652C38.957 468.924 132.25 512 256 512s217.043-43.076 217.043-100.174V100.174c0-9.228-7.467-16.696-16.695-16.696z" style="" fill="#a4b8cc" data-original="#a4b8cc"></path><path d="M456.348 83.478c-9.228 0-16.696 7.467-16.696 16.696 0 31.533-78.554 66.783-183.652 66.783V512c123.75 0 217.043-43.076 217.043-100.174V100.174c0-9.228-7.467-16.696-16.695-16.696z" style="" fill="#8fa8bf" data-original="#8fa8bf"></path><path d="M256 200.348c-123.75 0-217.043-43.076-217.043-100.174v221.688c0 9.942 4.053 19.759 11.982 25.756C94.659 380.679 167.16 400.696 256 400.696s161.341-20.017 205.062-53.079c7.929-5.996 11.982-15.814 11.982-25.756V100.174C473.043 157.272 379.75 200.348 256 200.348z" style="" fill="#b8c9d9" data-original="#b8c9d9"></path><path d="M461.062 347.617c7.929-5.996 11.982-15.814 11.982-25.756V100.174c0 57.098-93.293 100.174-217.043 100.174v200.348c88.839 0 161.34-20.017 205.061-53.079z" style="" fill="#a4b8cc" data-original="#a4b8cc"></path><path d="M256 200.348c-123.75 0-217.043-43.076-217.043-100.174S132.25 0 256 0s217.043 43.076 217.043 100.174S379.75 200.348 256 200.348z" style="" fill="#e6f3ff" data-original="#e6f3ff"></path><path d="M473.043 100.174C473.043 43.076 379.75 0 256 0v200.348c123.75 0 217.043-43.076 217.043-100.174z" style="" fill="#cfdbe6" data-original="#cfdbe6"></path><path d="M256 200.348c-123.75 0-217.043-43.076-217.043-100.174v121.514c0 9.942 4.053 19.759 11.982 25.756C94.659 280.505 167.16 300.522 256 300.522s161.341-20.017 205.062-53.079c7.929-5.996 11.982-15.814 11.982-25.756V100.174C473.043 157.272 379.75 200.348 256 200.348z" style="" fill="#cfdbe6" data-original="#cfdbe6"></path><path d="M461.062 247.443c7.929-5.996 11.982-15.814 11.982-25.756V100.174c0 57.098-93.293 100.174-217.043 100.174v100.174c88.839 0 161.34-20.017 205.061-53.079z" style="" fill="#b8c9d9" data-original="#b8c9d9"></path></g></svg>