<svg xmlns="http://www.w3.org/2000/svg" version="1.1" xmlns:xlink="http://www.w3.org/1999/xlink" width="512" height="512" x="0" y="0" viewBox="0 0 53 53" style="enable-background:new 0 0 512 512" xml:space="preserve" class=""><g><path d="M50.455 8C49.724 3.538 39.281 0 26.5 0S3.276 3.538 2.545 8H2.5v37h.045c.731 4.461 11.175 8 23.955 8s23.224-3.539 23.955-8h.045V8h-.045z" style="" fill="#424a60" data-original="#424a60"></path><path d="M26.5 41c-13.255 0-24-3.806-24-8.5V45h.045c.731 4.461 11.175 8 23.955 8s23.224-3.539 23.955-8h.045V32.5c0 4.694-10.745 8.5-24 8.5zM2.5 32v.5c0-.168.018-.334.045-.5H2.5zM50.455 32c.027.166.045.332.045.5V32h-.045z" style="" fill="#424a60" data-original="#424a60"></path><path d="M26.5 29c-13.255 0-24-3.806-24-8.5V33h.045c.731 4.461 11.175 8 23.955 8s23.224-3.539 23.955-8h.045V20.5c0 4.694-10.745 8.5-24 8.5zM2.5 20v.5c0-.168.018-.334.045-.5H2.5zM50.455 20c.027.166.045.332.045.5V20h-.045z" style="" fill="#556080" data-original="#556080"></path><ellipse cx="26.5" cy="8.5" rx="24" ry="8.5" style="" fill="#7fabda" data-original="#7fabda" class=""></ellipse><path d="M26.5 17c-13.255 0-24-3.806-24-8.5V21h.045c.731 4.461 11.175 8 23.955 8s23.224-3.539 23.955-8h.045V8.5c0 4.694-10.745 8.5-24 8.5zM2.5 8v.5c0-.168.018-.334.045-.5H2.5zM50.455 8c.027.166.045.332.045.5V8h-.045z" style="" fill="#7383bf" data-original="#7383bf" class=""></path></g></svg>